#!OML:ASF I:\Random Stuff\random\construction\7_22_03\Session 2\subj1.ASF
:FULLY-SPECIFIED
:DEGREES
913
root 3.78802 17.6935 -8.19073 19.1667 -22.1816 -2.5176
lowerback 13.3705 0.937208 3.72219
upperback 4.20694 1.70126 0.855789
thorax -2.97967 0.820683 -1.46893
lowerneck -22.2699 0.898407 -2.07395
upperneck 42.3226 2.61153 -1.19213
head 20.5504 0.379392 0.342135
rclavicle 5.34731e-014 -2.94201e-014
rhumerus 14.6357 34.1246 -42.3756
rradius 70.5952
rwrist 26.9872
rhand -48.5079 -281.866
rfingers 7.12502
rthumb -21.1563 49.268
lclavicle 5.34731e-014 -2.94201e-014
lhumerus -14.7574 -68.5966 105.477
lradius 78.5626
lwrist 69.1376
lhand -27.0374 72.1307
lfingers 7.12502
lthumb -0.456212 -462.11
rfemur -28.9282 -1.47571 20.3765
rtibia 19.4047
rfoot -6.22313 -7.3472
rtoes -7.01693
lfemur -29.9751 -4.50032 -8.84471
ltibia 26.3124
lfoot -13.4454 7.0445
ltoes -34.82
914
root 3.79205 17.6959 -8.18191 19.1098 -22.1399 -2.49691
lowerback 13.337 0.887148 3.61197
upperback 4.13292 1.62458 0.889015
thorax -3.04762 0.781084 -1.36086
lowerneck -22.1831 0.942968 -2.11595
upperneck 42.2559 2.71851 -1.24142
head 20.4797 0.406918 0.348592
rclavicle 4.17448e-015 -3.57812e-015
rhumerus 12.906 32.6701 -43.7691
rradius 71.3102
rwrist 25.6869
rhand -48.1008 -283.93
rfingers 7.12502
rthumb -20.7653 47.1608
lclavicle 4.17448e-015 -3.57812e-015
lhumerus -15.1666 -68.2228 105.988
lradius 78.3434
lwrist 69.0214
lhand -27.0291 72.0339
lfingers 7.12502
lthumb -0.448223 -462.013
rfemur -28.7824 -1.41898 20.3009
rtibia 19.3068
rfoot -6.16377 -7.41988
rtoes -6.78496
lfemur -29.9013 -4.53535 -8.8989
ltibia 26.2897
lfoot -13.4399 7.03557
ltoes -34.8841
915
root 3.7956 17.6986 -8.17056 19.111 -22.0466 -2.54157
lowerback 13.2308 0.858459 3.58196
upperback 4.06192 1.58239 0.9035
thorax -3.06798 0.759691 -1.32105
lowerneck -22.2421 0.971977 -2.19609
upperneck 42.4287 2.68668 -0.984332
head 20.6047 0.412713 0.486213
rclavicle 2.94201e-014 1.98785e-015
rhumerus 10.9798 31.253 -45.1328
rradius 72.1134
rwrist 24.5589
rhand -47.336 -286.953
rfingers 7.12502
rthumb -20.0303 44.0596
lclavicle 2.94201e-014 1.98785e-015
lhumerus -15.6693 -68.0129 106.533
lradius 78.1364
lwrist 68.9313
lhand -26.9628 71.832
lfingers 7.12502
lthumb -0.384132 -461.811
rfemur -28.6337 -1.32137 20.2859
rtibia 19.147
rfoot -6.05289 -7.61621
rtoes -7.12202
lfemur -29.8817 -4.62395 -8.85858
ltibia 26.2895
lfoot -13.4708 7.05243
ltoes -34.817
916
root 3.79776 17.7008 -8.15754 19.1111 -21.9481 -2.61803
lowerback 13.0702 0.847998 3.5954
upperback 4.0173 1.56471 0.876815
thorax -3.02726 0.751889 -1.3509
lowerneck -22.1546 0.832435 -2.06888
upperneck 42.2579 2.46032 -1.11496
head 20.4697 0.33511 0.344048
rclavicle -3.61788e-014 1.11319e-014
rhumerus 8.9583 29.9828 -46.4662
rradius 73.0383
rwrist 23.6638
rhand -46.8403 -290.168
rfingers 7.12502
rthumb -19.5538 40.795
lclavicle -3.61788e-014 1.11319e-014
lhumerus -16.1731 -67.8973 107.067
lradius 77.8818
lwrist 68.8075
lhand -26.8212 71.7039
lfingers 7.12502
lthumb -0.247382 -461.684
rfemur -28.4463 -1.1694 20.2859
rtibia 18.9587
rfoot -5.96208 -7.86014
rtoes -7.07908
lfemur -29.8472 -4.75076 -8.77243
ltibia 26.3155
lfoot -13.5993 7.09624
ltoes -34.5253
917
root 3.79992 17.7027 -8.14325 19.066 -21.9015 -2.66387
lowerback 12.9058 0.85361 3.60412
upperback 3.98869 1.56454 0.792972
thorax -2.96522 0.753443 -1.44003
lowerneck -22.2874 0.690395 -1.99877
upperneck 42.4141 2.12043 -0.9258
head 20.6131 0.241176 0.3491
rclavicle -3.55825e-014 3.89618e-014
rhumerus 6.87212 28.9377 -47.696
rradius 74.126
rwrist 22.7882
rhand -46.8122 -293.48
rfingers 7.12502
rthumb -19.5267 37.4808
lclavicle -3.55825e-014 3.89618e-014
lhumerus -16.6598 -67.8149 107.556
lradius 77.6519
lwrist 68.6829
lhand -26.6953 71.6649
lfingers 7.12502
lthumb -0.125773 -461.645
rfemur -28.2134 -1.0508 20.2597
rtibia 18.7601
rfoot -5.90166 -7.99314
rtoes -7.14727
lfemur -29.7644 -4.82546 -8.75017
ltibia 26.3652
lfoot -13.7833 7.11784
ltoes -33.9433
